#tb 0: 1/25
#media_type 0: video
#codec_id 0: rawvideo
#dimensions 0: 640x480
#sar 0: 0/1
0,          0,          0,        1,   460800, 0x7f06cb02
0,          1,          1,        1,   460800, 0x1ad483aa
0,          2,          2,        1,   460800, 0x1bbbc991
0,          3,          3,        1,   460800, 0x8fe7afa5
0,          4,          4,        1,   460800, 0xe609cb0b
0,          5,          5,        1,   460800, 0xcc65fec8
0,          6,          6,        1,   460800, 0xa0601519
0,          7,          7,        1,   460800, 0x8b0d3002
0,          8,          8,        1,   460800, 0x7b1191af
